<?xml version="1.0" standalone="no"?>
<!DOCTYPE svg PUBLIC "-//W3C//DTD SVG 20010904//EN"
 "http://www.w3.org/TR/2001/REC-SVG-20010904/DTD/svg10.dtd">
<svg version="1.0" xmlns="http://www.w3.org/2000/svg"
 width="700.000000pt" height="700.000000pt" viewBox="0 0 700.000000 700.000000"
 preserveAspectRatio="xMidYMid meet">
<metadata>
Created by potrace 1.14, written by Peter Selinger 2001-2017
</metadata>
<g transform="translate(0.000000,700.000000) scale(0.100000,-0.100000)"
fill="#000000" stroke="none">
<path d="M700 6993 c-285 -47 -529 -240 -638 -503 -65 -159 -61 66 -59 -3015
l2 -2800 22 -71 c76 -244 226 -419 448 -524 172 -82 -72 -74 2430 -77 l2230
-2 91 23 c273 71 483 261 577 523 28 78 35 110 43 206 l6 67 -273 -2 -273 -3
-8 -42 c-18 -110 -105 -198 -213 -219 -22 -4 -1003 -7 -2180 -7 -2124 0 -2140
0 -2186 20 -86 38 -146 108 -164 193 -9 40 -11 4148 -2 4156 8 8 4732 8 4744
1 5 -3 9 -40 8 -81 -1 -70 1 -76 20 -77 25 -1 472 -1 503 0 l23 1 -3 783 c-3
707 -5 788 -21 842 -9 33 -21 69 -26 80 -45 100 -59 127 -92 175 -110 163
-284 284 -481 335 l-93 24 -2205 -1 c-1213 0 -2216 -3 -2230 -5z m4435 -562
c65 -29 118 -81 146 -145 22 -50 23 -61 24 -434 l1 -382 -2380 2 -2379 3 0
380 c1 330 3 386 17 420 38 90 111 152 201 170 35 7 734 10 2186 9 l2134 -1
50 -22z"/>
<path d="M3597 6228 c-196 -42 -284 -273 -164 -430 18 -23 55 -56 82 -73 44
-27 56 -30 134 -30 76 0 92 3 132 27 124 73 174 218 119 347 -49 113 -185 185
-303 159z"/>
<path d="M4579 6229 c-59 -9 -116 -38 -155 -81 -51 -54 -68 -95 -70 -178 -4
-113 38 -191 136 -248 39 -24 56 -27 130 -27 68 0 93 5 125 22 129 69 183 224
123 355 -53 115 -164 176 -289 157z"/>
<path d="M2846 4443 c-1 -2 -29 -5 -62 -8 -201 -17 -390 -70 -580 -161 -349
-167 -633 -448 -800 -791 -67 -139 -132 -339 -150 -462 -15 -109 -19 -164 -19
-291 0 -157 6 -216 35 -357 74 -359 302 -732 585 -958 28 -22 52 -42 55 -45
24 -25 188 -123 285 -170 197 -95 349 -139 570 -166 105 -12 364 -6 425 11 8
2 37 6 64 10 27 3 52 8 56 10 4 2 19 6 35 9 104 19 343 117 468 192 79 48 198
135 253 186 l43 39 -62 77 c-73 90 -157 219 -207 314 -19 37 -38 67 -41 65 -4
-1 -36 -29 -71 -62 -186 -172 -403 -273 -658 -304 -327 -41 -680 77 -924 309
l-76 72 38 28 c139 102 272 292 322 460 113 384 3 752 -305 1018 l-50 43 74
70 c273 258 628 360 1021 293 172 -29 398 -144 546 -277 l51 -46 57 115 c50
101 134 236 206 332 l25 33 -25 20 c-286 226 -605 357 -941 385 -77 6 -239 11
-243 7z"/>
<path d="M5305 3985 l0 -225 -50 -16 c-28 -8 -75 -28 -105 -44 l-55 -28 -160
159 -160 159 -193 -192 c-188 -187 -192 -191 -175 -211 10 -11 80 -83 157
-159 l138 -139 -36 -80 c-20 -44 -39 -93 -43 -109 -4 -20 -13 -32 -27 -34 -11
-3 -112 -4 -222 -4 -111 0 -205 -2 -210 -5 -7 -4 -11 -505 -5 -537 1 -3 102
-5 226 -5 l225 0 16 -50 c9 -27 30 -78 47 -113 l31 -63 -155 -155 c-85 -85
-156 -157 -158 -159 -4 -4 369 -375 381 -378 4 -1 77 67 162 152 l154 154 88
-37 c49 -21 98 -41 109 -45 20 -8 20 -17 20 -230 l0 -221 35 -1 c43 -1 421 -1
472 0 l38 1 2 221 3 221 85 32 c47 18 97 39 113 46 27 13 29 12 184 -144 l156
-157 59 58 c33 32 120 118 194 192 l135 135 -157 157 -158 158 34 72 c18 40
39 91 45 113 l12 41 222 0 221 0 -2 274 -3 273 -205 0 c-219 -1 -240 2 -240
23 0 8 -19 58 -41 110 l-41 96 156 157 156 157 -192 192 -193 193 -160 -159
-160 -160 -50 26 c-27 14 -77 36 -110 47 l-60 22 -3 222 -2 222 -273 0 -272 0
0 -225z m450 -766 c200 -75 328 -306 285 -515 -46 -223 -231 -376 -455 -376
-300 -2 -519 274 -451 566 65 276 351 426 621 325z"/>
</g>
</svg>
